<?xml version="1.0" standalone="no"?>
<!DOCTYPE svg PUBLIC "-//W3C//DTD SVG 20010904//EN"
 "http://www.w3.org/TR/2001/REC-SVG-20010904/DTD/svg10.dtd">
<svg version="1.0" xmlns="http://www.w3.org/2000/svg"
 width="500.000000pt" height="500.000000pt" viewBox="0 0 500.000000 500.000000"
 preserveAspectRatio="xMidYMid meet">
<g transform="translate(0.000000,500.000000) scale(0.100000,-0.100000)"
fill="#000000" stroke="none">
<path d="M2500 4162 l0 -838 55 -18 c37 -11 72 -33 110 -67 30 -28 55 -55 55
-59 0 -4 -20 -20 -45 -35 l-46 -26 -40 40 c-38 37 -75 59 -85 48 -2 -2 -4
-172 -5 -376 0 -304 2 -376 14 -390 7 -9 98 -118 202 -244 177 -215 189 -226
202 -207 57 81 103 260 103 403 l0 87 55 0 55 0 0 -105 c0 -171 -39 -318 -115
-432 -19 -29 -35 -56 -35 -60 0 -5 34 -48 76 -98 l75 -90 -66 -3 c-63 -3 -66
-2 -93 30 -15 18 -38 46 -52 61 l-26 29 -47 -32 c-67 -45 -153 -78 -257 -97
l-90 -17 0 -833 0 -833 1248 2 1247 3 0 2495 0 2495 -1247 3 -1248 2 0 -838z
m2330 383 l0 -275 -60 0 -60 0 0 215 0 215 -215 0 -215 0 0 60 0 60 275 0 275
0 0 -275z m-715 -1263 c263 -71 425 -233 497 -497 19 -70 22 -105 22 -285 0
-180 -3 -215 -22 -285 -63 -232 -195 -385 -403 -468 -115 -46 -214 -57 -505
-57 l-264 0 0 811 0 811 298 -4 c264 -4 306 -7 377 -26z"/>
<path d="M3560 2500 l0 -702 223 5 c248 6 305 15 425 73 141 68 235 190 284
371 29 108 32 392 4 498 -46 176 -135 296 -273 368 -123 64 -198 78 -445 84
l-218 6 0 -703z"/>
<path d="M2436 3342 c-3 -5 1 -9 9 -9 8 0 12 4 9 9 -3 4 -7 8 -9 8 -2 0 -6 -4
-9 -8z"/>
<path d="M2026 3232 c-3 -5 1 -9 9 -9 8 0 12 4 9 9 -3 4 -7 8 -9 8 -2 0 -6 -4
-9 -8z"/>
<path d="M1563 2975 c0 -8 4 -12 9 -9 5 3 6 10 3 15 -9 13 -12 11 -12 -6z"/>
<path d="M2013 2775 c0 -8 4 -12 9 -9 5 3 6 10 3 15 -9 13 -12 11 -12 -6z"/>
<path d="M2500 2032 c0 -288 -11 -261 103 -237 68 14 173 63 201 94 13 15 1
33 -130 191 -80 96 -152 182 -160 190 -12 12 -14 -20 -14 -238z"/>
<path d="M965 1861 c-3 -5 -2 -12 3 -15 5 -3 9 1 9 9 0 17 -3 19 -12 6z"/>
</g>
</svg>
